# xmcd
#
# Track frame offsets: 
#        150
#        18793
#        30965
#        52856
#        68498
#        84356
#        100386
#        115720
#        126681
#        139565
#        154996
#        174630
#        188873
#
# Disc length: 2690 seconds
#
# Revision: 1
# Processed by: cddbd v1.5.2PL0 Copyright (c) Steve Scherf et al.
# Submitted via: ExactAudioCopy v0.99pb5
#
DISCID=9f0a800d
DTITLE=Kenny "Blue" Ray - Let Teh Blues Rule
DYEAR=1998
DGENRE=Blues
TTITLE0=Wondering
TTITLE1=Snake Eyed Boogie
TTITLE2=Cut You Loose
TTITLE3=Lucy's Kiss
TTITLE4=Let The Blues Rule
TTITLE5=Walk when I walk
TTITLE6=Tribute To Jr.
TTITLE7=Thank you Jimi
TTITLE8=You're the one
TTITLE9=Deport El Nino
TTITLE10=Backdoor Man
TTITLE11=Tupelo Hop
TTITLE12=Tele Funkin'
EXTD=
EXTT0=
EXTT1=
EXTT2=
EXTT3=
EXTT4=
EXTT5=
EXTT6=
EXTT7=
EXTT8=
EXTT9=
EXTT10=
EXTT11=
EXTT12=
PLAYORDER=
